<?xml version="1.0" encoding="UTF-8"?>
<svg width="484px" height="552px" viewBox="0 0 484 552" version="1.1" xmlns="http://www.w3.org/2000/svg" xmlns:xlink="http://www.w3.org/1999/xlink">
    <!-- Generator: Sketch 53 (72520) - https://sketchapp.com -->
    <title>Untitled</title>
    <desc>Created with Sketch.</desc>
    <g id="Page-1" stroke="none" stroke-width="1" fill="none" fill-rule="evenodd">
        <g id="Handicap" transform="translate(242.000000, 276.000000) scale(-1, 1) translate(-242.000000, -276.000000) " fill="#FFFFFF">
            <path d="M321.234375,98.1240234 C296.271484,95.8193359 276.876953,74.3129882 276.876953,49.1582031 C276.876953,22.0830078 298.959961,0 326.035156,0 C353.110352,0 375.192383,22.0830078 375.192383,49.1582031 C375.192383,57.415039 372.888672,65.8637695 369.047852,72.96875 L351.532227,319.435547 L171.135254,319.484375 L97.144043,492.849609 L0,454.751953 L15.0429688,418.931641 L69.4091797,438.556641 L141,273.276367 L308.729492,274.40332 L311.032227,243.19043 L189.608887,243.238769 L189.608887,197.055664 L315.664063,197.006348 L321.234375,98.1240234 Z" id="Path"></path>
            <path d="M139.802246,451.59082 C170.25,511.77832 233.977539,551.430664 301.953125,551.430664 C401.792969,551.430664 483.222656,470.000977 483.222656,370.161133 C483.222656,300.060547 440.737305,234.91748 377.34082,206.040039 L373.238281,259.577637 C410.735352,283.206055 433.850586,325.839844 433.850586,370.52832 C433.850586,442.955078 374.779297,502.025391 302.353516,502.025391 C236.091309,502.025391 179.588867,451.173828 171.883789,385.938476 L139.802246,451.59082 Z" id="Path"></path>
        </g>
    </g>
</svg>